<svg width="18" height="18" viewBox="0 0 18 18" fill="none" xmlns="http://www.w3.org/2000/svg">
	<mask id="mask0_309_5400" maskUnits="userSpaceOnUse" x="0" y="0" width="18" height="18" style="mask-type: alpha;">
		<rect width="18" height="18" fill="currentColor"></rect>
	</mask>
	<g mask="url(#mask0_309_5400)">
		<path d="M13 16H16V17.5C16 17.7761 15.7761 18 15.5 18H13.5C13.2239 18 13 17.7761 13 17.5V16Z" fill="currentColor"></path>
		<path d="M2 16H5V17.5C5 17.7761 4.77614 18 4.5 18H2.5C2.22386 18 2 17.7761 2 17.5V16Z" fill="currentColor"></path>
		<path d="M2.5 2C2.5 1.17157 3.17157 0.5 4 0.5H14C14.8284 0.5 15.5 1.17157 15.5 2V15.5H2.5V2Z" stroke="currentColor"></path>
		<line x1="3" y1="11.5" x2="15" y2="11.5" stroke="currentColor"></line>
		<line x1="3" y1="3.5" x2="15" y2="3.5" stroke="currentColor"></line>
		<line x1="4" y1="13.5" x2="6" y2="13.5" stroke="currentColor"></line>
		<line x1="12" y1="13.5" x2="14" y2="13.5" stroke="currentColor"></line>
		<path d="M2.72361 5.94721C2.9706 5.82372 3.07071 5.52338 2.94721 5.27639C2.82372 5.0294 2.52338 4.92929 2.27639 5.05279L2.72361 5.94721ZM0.5 6.5L0.276393 6.05279L0 6.19098V6.5H0.5ZM0 8.5V9H1V8.5H0ZM2.27639 5.05279L0.276393 6.05279L0.723607 6.94721L2.72361 5.94721L2.27639 5.05279ZM0 6.5V8.5H1V6.5H0Z" fill="currentColor"></path> <path d="M15.2764 5.94721C15.0294 5.82372 14.9293 5.52338 15.0528 5.27639C15.1763 5.0294 15.4766 4.92929 15.7236 5.05279L15.2764 5.94721ZM17.5 6.5L17.7236 6.05279L18 6.19098V6.5H17.5ZM18 8.5V9H17V8.5H18ZM15.7236 5.05279L17.7236 6.05279L17.2764 6.94721L15.2764 5.94721L15.7236 5.05279ZM18 6.5V8.5H17V6.5H18Z" fill="currentColor"></path>
	</g>
</svg>