<svg width="18" height="18" viewBox="0 0 18 18" fill="none" xmlns="http://www.w3.org/2000/svg">
	<mask id="mask0_309_5402" maskUnits="userSpaceOnUse" x="0" y="0" width="18" height="18" style="mask-type: alpha;">
		<rect width="18" height="18" fill="currentColor"></rect>
	</mask>
	<g mask="url(#mask0_309_5402)">
		<path
			d="M4 11C4.55228 11 5 10.5523 5 10C5 9.44772 4.55228 9 4 9C3.44772 9 3 9.44772 3 10C3 10.5523 3.44772 11 4 11Z"
			fill="currentColor"></path>
		<path
			d="M14 11C14.5523 11 15 10.5523 15 10C15 9.44772 14.5523 9 14 9C13.4477 9 13 9.44772 13 10C13 10.5523 13.4477 11 14 11Z"
			fill="currentColor"></path>
		<path d="M16 7.5H2" stroke="currentColor" stroke-miterlimit="10"></path>
		<path d="M18 7H15L16 9H18V7Z" fill="currentColor"></path>
		<path d="M3 7H0V9H2L3 7Z" fill="currentColor"></path>
		<path
			d="M1.5 15V10L3 7.5L3.72147 3.1712C3.8822 2.20683 4.71658 1.5 5.69425 1.5H12.3057C13.2834 1.5 14.1178 2.20683 14.2785 3.1712L15 7.5L16.5 10V15H1.5Z"
			stroke="currentColor"></path>
		<path d="M13 15H16V17.5C16 17.7761 15.7761 18 15.5 18H13.5C13.2239 18 13 17.7761 13 17.5V15Z" fill="currentColor">
		</path>
		<path d="M2 15H5V17.5C5 17.7761 4.77614 18 4.5 18H2.5C2.22386 18 2 17.7761 2 17.5V15Z" fill="currentColor"></path>
		<line x1="3" y1="12.5" x2="15" y2="12.5" stroke="currentColor"></line>
	</g>
</svg>