<svg width="18" height="18" viewBox="0 0 18 18" fill="none" xmlns="http://www.w3.org/2000/svg">
	<mask id="mask0_309_5387" maskUnits="userSpaceOnUse" x="0" y="0" width="18" height="18" style="mask-type: alpha;">
		<rect width="18" height="18" fill="#EED8D8"></rect>
	</mask>
	<g mask="url(#mask0_309_5387)">
		<path
			d="M6 14C6.55228 14 7 13.5523 7 13C7 12.4477 6.55228 12 6 12C5.44772 12 5 12.4477 5 13C5 13.5523 5.44772 14 6 14Z"
			fill="currentColor"></path>
		<path
			d="M12 14C12.5523 14 13 13.5523 13 13C13 12.4477 12.5523 12 12 12C11.4477 12 11 12.4477 11 13C11 13.5523 11.4477 14 12 14Z"
			fill="currentColor"></path>
		<path
			d="M3.5 8C3.5 6.067 5.067 4.5 7 4.5H11C12.933 4.5 14.5 6.067 14.5 8V14C14.5 14.8284 13.8284 15.5 13 15.5H5C4.17157 15.5 3.5 14.8284 3.5 14V8Z"
			stroke="currentColor"></path>
		<line x1="3" y1="10.5" x2="14" y2="10.5" stroke="currentColor"></line>
		<line x1="7" y1="2.5" x2="11" y2="2.5" stroke="currentColor"></line>
		<path d="M0.5 17.5V8.5C0.5 4.08172 4.08172 0.5 8.5 0.5H9.5C13.9183 0.5 17.5 4.08172 17.5 8.5V17.5"
			stroke="currentColor" stroke-linecap="square"></path>
		<line y1="-0.5" x2="5.83095" y2="-0.5" transform="matrix(-0.514496 0.857493 -0.729537 -0.683941 6 15)"
			stroke="currentColor"></line>
		<line y1="-0.5" x2="5.83095" y2="-0.5" transform="matrix(0.514496 0.857493 0.729537 -0.683941 12 15)"
			stroke="currentColor"></line>
	</g>
</svg>